<svg width="218" height="218" viewBox="0 0 218 218" fill="none" xmlns="http://www.w3.org/2000/svg">
<path d="M136.229 109.161L129.78 112.885L127.918 109.66L144.371 100.161L146.233 103.386L139.816 107.09L150.873 126.242L147.287 128.313L136.229 109.161Z" fill="#FF483D"/>
<path d="M132.97 123.855C134.781 126.992 135.442 129.784 134.953 132.23C134.452 134.655 132.863 136.64 130.187 138.185C127.467 139.756 124.931 140.152 122.581 139.374C120.217 138.574 118.13 136.605 116.319 133.468L108.891 120.602L112.477 118.531L119.678 131.002C120.248 131.989 120.85 132.855 121.485 133.6C122.12 134.345 122.788 134.895 123.491 135.25C124.196 135.662 124.962 135.849 125.788 135.811C126.615 135.772 127.466 135.5 128.344 134.993C129.221 134.487 129.872 133.891 130.297 133.208C130.721 132.524 130.953 131.761 130.993 130.919C130.993 130.158 130.829 129.317 130.501 128.395C130.196 127.46 129.758 126.499 129.188 125.512L121.987 113.04L125.541 110.988L132.97 123.855Z" fill="#FF483D"/>
<path d="M94.9506 143.35C95.5458 144.381 96.2491 145.32 97.0604 146.168C97.8936 147.003 98.7841 147.659 99.732 148.136C100.724 148.587 101.758 148.809 102.836 148.801C103.936 148.78 105.045 148.447 106.164 147.801C107.283 147.155 108.115 146.367 108.66 145.438C109.228 144.496 109.554 143.489 109.637 142.417C109.72 141.345 109.608 140.24 109.302 139.101C109.017 137.949 108.577 136.857 107.981 135.826C107.373 134.773 106.648 133.847 105.806 133.046C104.985 132.233 104.066 131.579 103.049 131.084C102.083 130.676 101.056 130.494 99.9694 130.536C98.9044 130.566 97.8344 130.892 96.7595 131.512C95.6626 132.145 94.835 132.916 94.2766 133.823C93.7182 134.731 93.3738 135.704 93.2433 136.745C93.1635 137.873 93.2706 138.996 93.5647 140.113C93.8806 141.218 94.3426 142.297 94.9506 143.35ZM91.1853 145.568C90.2354 143.922 89.5918 142.276 89.2546 140.627C88.9393 138.967 88.9354 137.39 89.2429 135.896C89.5159 134.393 90.1239 132.989 91.067 131.684C91.9974 130.357 93.2742 129.225 94.8976 128.287C96.521 127.35 98.1399 126.81 99.7542 126.668C101.356 126.504 102.876 126.679 104.314 127.194C105.761 127.675 107.115 128.473 108.373 129.589C109.632 130.705 110.736 132.086 111.686 133.731C112.674 135.443 113.343 137.133 113.693 138.803C114.052 140.439 114.084 142.014 113.789 143.53C113.482 145.024 112.85 146.412 111.894 147.695C110.926 148.956 109.63 150.055 108.007 150.993C106.361 151.943 104.75 152.522 103.174 152.73C101.585 152.916 100.078 152.762 98.6523 152.269C97.2141 151.754 95.8547 150.945 94.5741 149.841C93.3029 148.703 92.1732 147.279 91.1853 145.568Z" fill="#FF483D"/>
<path d="M109.699 67.5312L116.116 63.8265C117.717 62.902 119.333 62.3056 120.962 62.0376C122.614 61.7569 124.232 61.7733 125.817 62.0867C127.358 62.4254 128.806 63.1102 130.162 64.141C131.527 65.1373 132.729 66.5348 133.767 68.3337C134.895 70.2861 135.607 72.1273 135.903 73.8572C136.2 75.5871 136.132 77.1914 135.699 78.6701C135.256 80.1834 134.477 81.5693 133.361 82.8279C132.232 84.0646 130.79 85.1896 129.035 86.2028L122.618 89.9075L109.699 67.5312ZM124.395 84.6258L127.159 83.0299C129.66 81.586 131.179 79.8606 131.717 77.8536C132.264 75.812 131.733 73.3982 130.125 70.6121C129.352 69.274 128.496 68.2472 127.557 67.5319C126.626 66.7819 125.636 66.2569 124.585 65.9568C123.582 65.6879 122.529 65.6376 121.427 65.8059C120.334 65.9396 119.294 66.2914 118.307 66.8614L115.181 68.6662L124.395 84.6258Z" fill="#FF483D"/>
<path d="M95.0273 75.957L98.6141 73.8862L109.709 93.1035L118.758 87.8789L120.601 91.0708L107.965 98.3662L95.0273 75.957Z" fill="#FF483D"/>
<path d="M81.0541 98.7248C81.6494 99.7559 82.3526 100.695 83.1639 101.543C83.9971 102.378 84.8876 103.034 85.8355 103.511C86.8272 103.962 87.8619 104.184 88.9396 104.176C90.0392 104.155 91.1484 103.822 92.2672 103.176C93.386 102.53 94.2183 101.742 94.764 100.813C95.3317 99.8709 95.6571 98.864 95.7403 97.7922C95.8235 96.7204 95.7117 95.6149 95.405 94.4758C95.1203 93.3239 94.6803 92.2325 94.085 91.2014C93.477 90.1484 92.7518 89.2216 91.9093 88.421C91.0888 87.6077 90.17 86.9536 89.1529 86.4585C88.1865 86.0512 87.1598 85.8689 86.0729 85.9114C85.0079 85.9413 83.9379 86.2665 82.863 86.8871C81.7661 87.5204 80.9385 88.2908 80.3801 89.1981C79.8217 90.1055 79.4773 91.0795 79.3468 92.1201C79.267 93.2484 79.3741 94.3712 79.6682 95.4884C79.9842 96.593 80.4461 97.6718 81.0541 98.7248ZM77.2888 100.943C76.3389 99.2972 75.6953 97.6505 75.3581 96.0025C75.0428 94.3418 75.0389 92.7645 75.3464 91.2707C75.6194 89.7676 76.2274 88.3636 77.1705 87.0586C78.1009 85.7317 79.3778 84.5996 81.0011 83.6623C82.6245 82.7251 84.2434 82.1853 85.8577 82.043C87.4594 81.8788 88.9793 82.0542 90.4175 82.5694C91.865 83.05 93.218 83.8483 94.4766 84.9644C95.7353 86.0805 96.8395 87.4612 97.7895 89.1065C98.7774 90.8176 99.4463 92.5082 99.7962 94.1781C100.155 95.8135 100.188 97.3891 99.8927 98.9048C99.5851 100.399 98.9535 101.787 97.9977 103.07C97.0293 104.331 95.7335 105.43 94.1101 106.368C92.4648 107.318 90.8539 107.897 89.2776 108.105C87.6886 108.291 86.1813 108.137 84.7558 107.644C83.3176 107.129 81.9582 106.32 80.6777 105.216C79.4064 104.078 78.2768 102.654 77.2888 100.943Z" fill="#FF483D"/>
<path d="M67.511 92.5443C67.7745 93.1527 68.0207 93.7564 68.2496 94.3555C68.4785 94.9546 68.7201 95.5756 68.9743 96.2186C68.4123 96.3091 67.9241 96.4008 67.5098 96.4938C67.1047 96.5521 66.7123 96.6324 66.3326 96.7347C65.9309 96.8496 65.5592 96.991 65.2175 97.1591C64.8631 97.3052 64.4885 97.4922 64.0936 97.7202C63.5671 98.0242 63.1208 98.3404 62.7546 98.6688C62.3977 98.9626 62.0928 99.2703 61.8397 99.5919C61.6626 100.045 61.5594 100.5 61.53 100.955C61.5225 101.398 61.6771 101.894 61.9938 102.443C62.2851 102.947 62.6245 103.307 63.0119 103.522C63.4086 103.702 63.8428 103.847 64.3146 103.955C64.7956 104.028 65.3142 104.065 65.8704 104.065C66.4138 104.044 67.0231 103.985 67.6982 103.888L67.6792 103.855C68.4927 103.795 69.3535 103.766 70.2615 103.768C71.1789 103.735 72.0857 103.812 72.982 103.996C73.8251 104.241 74.6484 104.628 75.452 105.159C76.2429 105.667 76.8917 106.36 77.3983 107.238C78.0949 108.444 78.4645 109.591 78.507 110.678C78.5369 111.743 78.3246 112.743 77.87 113.678C77.4315 114.692 76.7774 115.611 75.9075 116.435C75.047 117.224 74.0464 117.948 72.9056 118.607C72.1159 119.063 71.2645 119.437 70.3515 119.73C69.4258 120.001 68.4921 120.233 67.5503 120.426C67.2868 119.818 67.0234 119.209 66.7599 118.601C66.5183 117.98 66.2502 117.389 65.9555 116.828C66.3479 116.748 66.7685 116.666 67.2175 116.582C67.6757 116.464 68.1558 116.333 68.6579 116.189C69.16 116.045 69.662 115.902 70.1641 115.758C70.6535 115.593 71.0847 115.402 71.4576 115.187C72.0061 114.87 72.4617 114.519 72.8244 114.134C73.1872 113.749 73.5027 113.333 73.7709 112.886C74.0265 112.417 74.1609 111.915 74.1742 111.381C74.1749 110.825 73.9916 110.228 73.6243 109.592C73.1303 108.737 72.5246 108.194 71.8072 107.965C71.0898 107.736 70.2615 107.643 69.3223 107.688C68.3796 107.677 67.3729 107.732 66.302 107.853C65.2404 107.939 64.2365 107.948 63.2905 107.88C62.2845 107.759 61.3422 107.47 60.4636 107.012C59.5722 106.532 58.8543 105.82 58.3096 104.877C57.7397 103.89 57.4195 102.904 57.3492 101.921C57.3007 100.925 57.4553 100.003 57.8129 99.1527C58.1889 98.2335 58.7397 97.389 59.4653 96.6191C60.1908 95.8493 61.0691 95.1667 62.1001 94.5714C62.846 94.1408 63.691 93.7553 64.6353 93.4149C65.5888 93.0399 66.5474 92.7497 67.511 92.5443Z" fill="#FF483D"/>
<path fill-rule="evenodd" clip-rule="evenodd" d="M146.522 173.989C182.415 153.267 194.713 107.37 173.99 71.4775C153.267 35.5845 107.371 23.2867 71.478 44.0095C35.5851 64.7323 23.2873 110.628 44.0101 146.521C64.7329 182.414 110.629 194.712 146.522 173.989ZM148.897 178.103C187.061 156.068 200.138 107.267 178.103 69.1027C156.069 30.938 107.268 17.8618 69.1032 39.8962C30.9386 61.9306 17.8624 110.732 39.8968 148.896C61.9311 187.061 110.732 200.137 148.897 178.103Z" fill="#FF483D"/>
</svg>
